<?xml version="1.0" encoding="utf-8"?>

<!DOCTYPE svg PUBLIC "-//W3C//DTD SVG 1.1//EN" "http://www.w3.org/Graphics/SVG/1.1/DTD/svg11.dtd">
<!-- Uploaded to: SVG Repo, www.svgrepo.com, Generator: SVG Repo Mixer Tools -->
<svg height="800px" width="800px" version="1.1" id="_x32_" xmlns="http://www.w3.org/2000/svg" xmlns:xlink="http://www.w3.org/1999/xlink" 
	 viewBox="0 0 512 512"  xml:space="preserve">
<style type="text/css">
	.st0{fill:#000000;}
</style>
<g>
	<path class="st0" d="M502.079,430.441l-80.346-80.338c-3.205-3.228-5.027-6.135-6.232-9.147c-1.044-2.642-1.614-5.436-1.767-8.761
		c-0.128-2.883,0.096-6.152,0.667-9.797c0.988-6.401,3.076-13.902,5.718-22.277c3.951-12.592,9.123-27.128,12.921-43.542
		c3.782-16.407,6.168-34.789,4.328-54.93c-0.995-10.906-4.047-21.409-8.102-31.319c-6.112-14.857-14.536-28.421-22.735-39.72
		c-4.095-5.645-8.151-10.712-11.86-15.058c-3.71-4.344-7.067-7.958-9.854-10.736c-0.892-0.892-2.28-2.386-3.975-4.256
		c-2.545-2.811-5.822-6.513-9.717-10.761c-3.911-4.24-8.448-9.066-13.588-14.206c-11.821-11.821-26.846-25.361-44.971-37.832
		c-18.125-12.456-39.39-23.868-63.658-31.256c-20.96-6.384-41.502-7.677-60.679-5.573c-28.814,3.156-54.544,13.78-75.697,26.059
		C91.361,39.311,74.753,53.3,64.025,64.02c-7.164,7.163-15.74,16.921-24.341,28.911c-12.873,17.98-25.811,40.955-33.319,67.561
		c-3.742,13.29-6.119,27.504-6.344,42.362c-0.225,14.848,1.702,30.339,6.488,46.039c7.389,24.276,18.792,45.542,31.256,63.674
		c12.463,18.118,26.003,33.151,37.824,44.972c6.858,6.85,13.138,12.632,18.262,17.258c2.562,2.322,4.834,4.345,6.705,6.048
		c1.872,1.686,3.365,3.075,4.265,3.975c3.702,3.702,8.898,8.448,15.314,13.66c9.621,7.806,21.932,16.624,35.809,23.996
		c6.946,3.686,14.278,7.019,21.923,9.629c7.654,2.618,15.611,4.521,23.787,5.268c20.044,1.823,38.338-0.522,54.689-4.28
		c12.271-2.819,23.481-6.417,33.632-9.709c7.605-2.465,14.616-4.746,20.944-6.456c4.754-1.286,9.107-2.224,13.018-2.755
		c2.931-0.386,5.598-0.538,8.006-0.45c3.63,0.145,6.634,0.763,9.476,1.96c2.843,1.213,5.622,3.003,8.681,6.055L440.363,512
		l71.633-71.633L502.079,430.441z M156.666,302.819c-25.834,0-46.77-20.936-46.77-46.77s20.936-46.77,46.77-46.77
		s46.77,20.936,46.77,46.77S182.501,302.819,156.666,302.819z M440.371,472.312l-70.429-70.428
		c-5.597-5.606-11.926-9.829-18.639-12.472c-5.87-2.337-11.941-3.453-17.868-3.71c-5.204-0.225-10.328,0.185-15.371,0.972
		c-8.842,1.38-17.522,3.903-26.372,6.681c-13.267,4.176-26.935,9.01-41.422,12.335c-9.428,2.176-19.177,3.71-29.352,4.119
		l188.896-188.888c-0.402,10.095-1.919,19.772-4.072,29.144c-2.481,10.8-5.79,21.177-9.05,31.247
		c-2.441,7.556-4.875,14.952-6.866,22.301c-1.478,5.525-2.723,11.026-3.469,16.623c-0.554,4.184-0.835,8.416-0.674,12.72
		c0.224,6.425,1.461,13.026,4.144,19.362c2.658,6.329,6.738,12.319,12.062,17.619l70.428,70.429L440.371,472.312z"/>
</g>
</svg>