<?xml version="1.0" encoding="iso-8859-1"?>
<!-- Uploaded to: SVG Repo, www.svgrepo.com, Generator: SVG Repo Mixer Tools -->
<svg fill="#000000" version="1.1" id="Layer_1" xmlns="http://www.w3.org/2000/svg" xmlns:xlink="http://www.w3.org/1999/xlink" 
	 viewBox="0 0 512 512" xml:space="preserve">
<g>
	<g>
		<path d="M406.569,442.267c-42.406,34.317-95.877,53.217-150.569,53.217c-63.987,0-124.132-24.905-169.356-70.129
			C41.421,380.132,16.516,319.988,16.516,256c0-38.322,8.769-74.925,26.062-108.793c16.5-32.315,40.597-60.948,69.684-82.802
			l-9.921-13.204c-31.083,23.354-56.836,53.955-74.473,88.496C9.377,175.912,0,215.042,0,256
			c0,68.399,26.624,132.692,74.966,181.034C123.308,485.376,187.601,512,256,512c58.462,0,115.624-20.206,160.958-56.895
			L406.569,442.267z"/>
	</g>
</g>
<g>
	<g>
		<path d="M437.034,74.966C388.692,26.623,324.399,0,256,0c-48.796,0-96.246,13.77-137.217,39.823l8.863,13.937
			C165.963,29.394,210.347,16.516,256,16.516c63.987,0,124.132,24.905,169.356,70.129c45.222,45.223,70.128,105.367,70.128,169.355
			c0,33.932-6.943,66.714-20.636,97.436c-13.232,29.685-32.072,55.992-56.001,78.188l11.232,12.109
			c25.572-23.722,45.711-51.84,59.854-83.574C504.575,327.308,512,292.264,512,256C512,187.601,485.376,123.308,437.034,74.966z"/>
	</g>
</g>
<g>
	<g>
		<path d="M462.452,225.72v-60.559h-33.387c-15.898-30.264-39.447-55.872-68.398-74.26C329.415,71.051,293.222,60.559,256,60.559
			c-49.297,0-96.369,18.41-132.545,51.838c-35.947,33.218-57.996,78.271-62.09,126.867c-0.543,5.241-0.806,10.717-0.806,16.736
			c0,107.767,87.674,195.441,195.441,195.441c37.222,0,73.415-10.492,104.667-30.342c28.951-18.388,52.499-43.997,68.398-74.26
			h33.387V286.28h11.011V225.72H462.452z M445.935,181.677v44.043h-87.418l44.043-44.043H445.935z M269.908,269.763L252.703,256
			l17.204-13.763h21.877v27.527H269.908z M291.679,286.28c-8.749,10.379-21.616,16.516-35.679,16.516
			c-25.804,0-46.796-20.992-46.796-46.796s20.992-46.796,46.796-46.796c14.063,0,26.93,6.137,35.679,16.516h-27.565L226.264,256
			l37.849,30.28H291.679z M256,192.688c-34.911,0-63.312,28.401-63.312,63.312s28.401,63.312,63.312,63.312
			c23.457,0,44.488-12.583,55.596-33.032h23.564l21.275,21.275C337.126,344.971,298.313,368.86,256,368.86
			c-62.232,0-112.86-50.629-112.86-112.86c0-7.427,0.763-15.12,2.254-22.781c10.73-52.195,57.247-90.079,110.606-90.079
			c42.315,0,81.127,23.886,100.436,61.306L335.16,225.72h-23.564C300.487,205.271,279.456,192.688,256,192.688z M308.301,269.763
			v-27.527h104.602v27.527H308.301z M351.812,407.158c-28.6,18.166-61.732,27.767-95.812,27.767
			c-98.66,0-178.925-80.265-178.925-178.925c0-5.475,0.238-10.416,0.727-15.11l0.015-0.165
			c3.73-44.502,23.919-85.769,56.847-116.198C167.779,93.927,210.87,77.075,256,77.075c34.081,0,67.212,9.601,95.812,27.767
			c24.027,15.261,43.987,35.951,58.357,60.319H395.72l-27.108,27.108c-22.865-40.221-65.871-65.646-112.611-65.646
			c-29.997,0-59.231,10.49-82.318,29.54c-22.761,18.781-38.554,44.966-44.484,73.817c-1.708,8.782-2.574,17.537-2.574,26.02
			c0,71.339,58.038,129.376,129.376,129.376c46.741,0,89.746-25.425,112.61-65.646l27.108,27.109h14.449
			C395.799,371.207,375.838,391.897,351.812,407.158z M445.935,330.323H402.56l-44.043-44.043h87.419V330.323z M456.946,269.763
			h-27.527v-27.527h27.527V269.763z"/>
	</g>
</g>
<g>
	<g>
		<rect x="410.151" y="198.194" width="22.021" height="16.516"/>
	</g>
</g>
<g>
	<g>
		<rect x="410.151" y="297.29" width="22.021" height="16.516"/>
	</g>
</g>
<g>
	<g>
		<path d="M215.393,98.7c-29.081,7.527-55.499,22.974-76.399,44.671c-20.969,21.769-35.387,48.808-41.68,78.121
			c-1.538,6.865-2.568,13.571-3.15,20.568c-0.39,5.221-0.573,9.65-0.573,13.94h16.516c0-3.868,0.167-7.905,0.522-12.637
			c0.514-6.167,1.431-12.139,2.819-18.332c5.663-26.375,18.609-50.651,37.443-70.202c18.781-19.498,42.516-33.378,68.64-40.14
			L215.393,98.7z"/>
	</g>
</g>
<g>
	<g>
		<path d="M370.632,346.244c-27.857,35.365-69.64,55.648-114.632,55.648v16.516c50.086,0,96.596-22.579,127.606-61.945
			L370.632,346.244z"/>
	</g>
</g>
<g>
	<g>
		<rect x="93.591" y="267.011" width="16.516" height="22.022"/>
	</g>
</g>
<g>
	<g>
		<rect x="222.968" y="401.892" width="22.021" height="16.516"/>
	</g>
</g>
</svg>